<svg xmlns:dc="http://purl.org/dc/elements/1.1/" xmlns:cc="http://creativecommons.org/ns#" xmlns:rdf="http://www.w3.org/1999/02/22-rdf-syntax-ns#" xmlns:svg="http://www.w3.org/2000/svg" xmlns="http://www.w3.org/2000/svg" xmlns:sodipodi="http://sodipodi.sourceforge.net/DTD/sodipodi-0.dtd" xmlns:inkscape="http://www.inkscape.org/namespaces/inkscape" width="1052.3621826171875" height="744.094482421875" version="1.1" inkscape:version="0.48.5 r10040" sodipodi:docname="Oil Painting.svg" style=""><rect id="backgroundrect" width="100%" height="100%" x="0" y="0" fill="none" stroke="none"/>
  <defs id="defs4">
    <filter inkscape:label="Oil painting" inkscape:menu="Image effects" inkscape:menu-tooltip="Simulate oil painting style" color-interpolation-filters="sRGB" id="filter8408">
      <feMorphology radius="2" in="SourceGraphic" result="result0" id="feMorphology8410"/>
      <feTurbulence numOctaves="1" baseFrequency="0.078" result="result91" id="feTurbulence8412"/>
      <feDisplacementMap in="result0" scale="6.3" xChannelSelector="R" yChannelSelector="G" in2="result91" id="feDisplacementMap8414"/>
    </filter>
    <filter inkscape:label="Fat oil" inkscape:menu="Bevels" inkscape:menu-tooltip="Fat oil with some adjustable turbulence" height="1.399999976158142" width="1.399999976158142" y="-0.20000000298023224" x="-0.20000000298023224" color-interpolation-filters="sRGB" id="filter8418">
      <feTurbulence numOctaves="3" seed="55" type="fractalNoise" baseFrequency="0.02" id="feTurbulence8420"/>
      <feGaussianBlur stdDeviation="1" result="result91" id="feGaussianBlur8422"/>
      <feDisplacementMap scale="15" yChannelSelector="G" xChannelSelector="R" in="SourceGraphic" in2="result91" id="feDisplacementMap8424"/>
      <feGaussianBlur stdDeviation="1.5" result="result92" id="feGaussianBlur8426"/>
      <feComposite result="fbSourceGraphic" k4="-0.3" k3="1" k2="1" operator="arithmetic" in2="result92" id="feComposite8428" k1="0"/>
      <feGaussianBlur stdDeviation="3.5" in="fbSourceGraphic" result="result0" id="feGaussianBlur8430"/>
      <feSpecularLighting in="result0" result="result1" lighting-color="#ffffff" surfaceScale="3" specularConstant="1" specularExponent="55" id="feSpecularLighting8432">
        <feDistantLight azimuth="235" elevation="65" id="feDistantLight8434"/>
      </feSpecularLighting>
      <feComposite in2="fbSourceGraphic" in="result1" result="result2" operator="in" id="feComposite8436"/>
      <feComposite in="fbSourceGraphic" result="result4" operator="arithmetic" k2="0.4" k3="1.7" in2="result2" id="feComposite8438" k1="0" k4="0"/>
      <feBlend result="fbSourceGraphic" mode="normal" in2="result2" id="feBlend8440"/>
    </filter>
    <filter inkscape:collect="always" id="filter8469" color-interpolation-filters="sRGB">
      <feGaussianBlur inkscape:collect="always" stdDeviation="3.5809463" id="feGaussianBlur8471"/>
    </filter>
    <filter inkscape:collect="always" id="filter8494" color-interpolation-filters="sRGB">
      <feGaussianBlur inkscape:collect="always" stdDeviation="2.2435808" id="feGaussianBlur8496"/>
    </filter>
    <filter inkscape:collect="always" id="filter8545" color-interpolation-filters="sRGB">
      <feGaussianBlur inkscape:collect="always" stdDeviation="2.5245458" id="feGaussianBlur8547"/>
    </filter>
    <filter inkscape:collect="always" id="filter8578" color-interpolation-filters="sRGB">
      <feGaussianBlur inkscape:collect="always" stdDeviation="3.5668746" id="feGaussianBlur8580"/>
    </filter>
    <filter inkscape:collect="always" id="filter8623" color-interpolation-filters="sRGB">
      <feGaussianBlur inkscape:collect="always" stdDeviation="5.3051126" id="feGaussianBlur8625"/>
    </filter>
    <filter inkscape:collect="always" id="filter8650" color-interpolation-filters="sRGB">
      <feGaussianBlur inkscape:collect="always" stdDeviation="3.8544431" id="feGaussianBlur8652"/>
    </filter>
    <filter inkscape:collect="always" id="filter8671" color-interpolation-filters="sRGB">
      <feGaussianBlur inkscape:collect="always" stdDeviation="6.0019317" id="feGaussianBlur8673"/>
    </filter>
    <filter inkscape:collect="always" id="filter8692" color-interpolation-filters="sRGB">
      <feGaussianBlur inkscape:collect="always" stdDeviation="3.8345552" id="feGaussianBlur8694"/>
    </filter>
    <filter inkscape:collect="always" id="filter8713" color-interpolation-filters="sRGB">
      <feGaussianBlur inkscape:collect="always" stdDeviation="3.9711552" id="feGaussianBlur8715"/>
    </filter>
    <mask maskUnits="userSpaceOnUse" id="mask8752">
      <g id="g8754">
        <path sodipodi:nodetypes="zcccccccssccz" inkscape:connector-curvature="0" id="path8756" d="m 303,118.96875 c -32.95243,1.17118 -64.31265,49.60254 -75.375,86.9375 -8.0853,25.4768 -32.57355,48.06083 -60.8125,42.71875 C 83.555144,239.14814 36.60131,147.89932 -46.71875,145.15625 c -9.145832,-0.15255 -18.381446,1.16794 -27.59375,4.34375 -55.4168,19.64011 -85.46192,96.84798 -47.5625,145.125 7.36127,10.53049 15.91248,19.67655 25.375,27.65625 -77.26235,-143.44842 83.395338,-201.38109 203.5625,-82.09375 20.20305,12.12183 72.30395,34.21025 107.09375,10.125 34.78981,-24.08525 16.16735,-64.6767 58.59375,-103.0625 42.42641,-38.3858 78.78125,12.125 78.78125,12.125 l 0.40625,-0.5625 C 339.35754,140.62644 335.95243,117.79757 303,118.96875 z" style="fill:#d5f6ff;stroke:none;filter:url(#filter8469)"/>
        <path id="path8758" d="m -107.15625,478.09375 c -11.47592,1.34968 -22.796,4.36401 -33.8125,9.8125 -35.60092,22.04183 -20.36295,84.73137 20.5,90.15625 17.38633,2.43913 35.943089,-0.14229 54.03125,-0.53125 -30.307137,-3.36973 -74.2526,-13.9851 -76.78125,-47 -1.53778,-20.0778 15.24992,-38.05203 36.0625,-52.4375 z M -42.0625,579.0625 c 0.637581,0.11473 1.272019,0.24506 1.90625,0.375 l 2.25,-0.375 c 0,0 -1.549352,0.034 -4.15625,0 z" style="fill:#d5f6ff;fill-opacity:1;stroke:none;filter:url(#filter8494)" inkscape:connector-curvature="0"/>
        <path id="path8760" d="m 519.625,127.84375 c -1.99079,0.10797 -4.06924,0.4921 -6.1875,1.125 -30.66978,7.54674 -38.98995,42.85109 -59.6875,62.78125 -11.37337,14.27404 -31.88184,27.15988 -49.90625,21.78125 17.88998,7.44231 47.94328,9.60474 74.96875,-37.96875 38.11462,-67.09396 64.51321,-27.79533 71.75,-14.09375 -1.48084,-16.81519 -13.64139,-34.56308 -30.9375,-33.625 z m -131.71875,75.96875 0,0.0312 c 0,0 2.10019,1.93243 5.78125,4.34375 -0.39454,-0.31212 -0.79849,-0.6008 -1.1875,-0.9375 -1.58706,-1.07645 -3.10452,-2.24217 -4.59375,-3.4375 z" style="fill:#d5f6ff;stroke:none;filter:url(#filter8545)" inkscape:connector-curvature="0"/>
        <path id="path8762" d="m 765.9375,128.1875 c -14.05328,0.23938 -28.11146,2.79282 -40.9375,7.21875 -44.92237,13.32156 -78.53099,47.8321 -114,76.21875 -1.41937,0.65289 -2.84483,1.1937 -4.3125,1.65625 17.47205,-2.7515 41.40536,-12.46801 71.875,-38.0625 71.42857,-60 132.875,-32.86608 152.875,-11.4375 11.61305,12.44256 19.35258,41.76101 19.34375,68.0625 12.92335,-20.57863 12.13049,-48.54212 -4.53125,-67.625 -18.41132,-25.9699 -49.39528,-36.55789 -80.3125,-36.03125 z" style="fill:#d5f6ff;stroke:none;filter:url(#filter8578)" inkscape:connector-curvature="0"/>
        <path sodipodi:nodetypes="cccccccssc" inkscape:connector-curvature="0" id="path8764" d="m 86.5625,774.375 -0.5,1.1875 c 14.56082,18.46565 11.515177,47.05664 1.375,67.46875 -23.92444,74.59517 -37.997594,157.82155 -11.03125,233.53125 10.96706,30.6144 43.77054,48.2398 75.375,45.2187 38.56442,-1.675 69.28135,-30.3239 85.90625,-63.3124 2.32912,-4.1306 4.591,-8.4145 6.8125,-12.75 -17.60233,24.9725 -70.33389,90.6769 -119.40625,57.5937 C 72.895872,1068.1222 64.738333,1001.7699 85.71875,895.21875 107.8877,782.63151 86.5625,774.375 86.5625,774.375 z" style="fill:#d5f6ff;stroke:none;filter:url(#filter8623)"/>
        <path id="path8766" d="M -4.03125,605.875 -8.75,608.59375 c -1.753794,10.65879 -10.153675,21.75461 -17.53125,28.34375 -27.48424,31.73762 -57.440101,61.16351 -86.8125,91.15625 -17.56279,20.00273 -37.50956,40.36496 -46.5,65.65625 -1.18759,31.05937 37.38455,48.77001 64,39.53125 15.805392,-5.16014 29.56346,-14.12576 43.09375,-23.5625 -21.146926,5.77134 -45.77174,9.16722 -68.71875,4.25 -41.67235,-8.92979 10.9402,-59.87813 58.59375,-115.15625 50.507627,-58.58885 58.59375,-92.9375 58.59375,-92.9375 z" style="fill:#d5f6ff;stroke:none;filter:url(#filter8650)" inkscape:connector-curvature="0"/>
        <path id="path8768" d="m 543.46875,820.03125 -1.78125,4.5625 c 21.69552,8.86672 37.24653,32.04041 47.53125,52.46875 39.92365,63.65518 63.30834,141.9095 127.15625,187.1563 65.78717,42.8497 167.13485,-12.5783 166.40625,-91.1563 -0.0128,-6.93997 -0.87482,-13.63805 -2.5,-20.0625 -1.95067,24.1543 -9.48623,52.5161 -29.71875,71.0625 -24.24366,22.2233 -119.19716,80.8401 -195.96875,-52.5 -76.77159,-133.34014 -111.125,-151.53125 -111.125,-151.53125 z" style="fill:#d5f6ff;stroke:none;filter:url(#filter8671)" inkscape:connector-curvature="0"/>
        <path id="path8770" d="m 901.28125,687.03125 c 22.92795,25.61141 36.12946,82.99889 -26.5,98.65625 C 810.13149,801.84994 670.75,743.25 670.75,743.25 l 25.46875,17.53125 c 14.65947,8.39567 28.93819,17.62527 45.875,20.8125 56.3614,19.55746 134.69585,31.95456 177.40625,2.5 40.041,-27.61365 13.02134,-75.68365 -18.21875,-97.0625 z" style="fill:#d5f6ff;stroke:none;filter:url(#filter8692)" inkscape:connector-curvature="0"/>
        <path id="path8772" d="m 767.78125,334.125 c 0.63667,5.42789 8.30566,34.02884 98.9375,45.46875 55.03973,6.94734 53.37233,52.48225 29.09375,97.6875 1.70472,-0.5117 3.42638,-0.99628 5.125,-1.46875 47.69919,-13.26738 24.71634,-103.1776 -18.4375,-111.875 -43.15384,-8.6974 -79.73916,6.82858 -109.4375,-21.6875 -2.14695,-2.67451 -3.88223,-5.39718 -5.28125,-8.125 z M 804.375,568.5625 c -2.83793,1.17582 -5.62791,2.18926 -8.375,2.96875 l 8.40625,-2.5 c -0.006,-0.15701 -0.0258,-0.31216 -0.0312,-0.46875 z" style="fill:#d5f6ff;stroke:none;filter:url(#filter8713)" inkscape:connector-curvature="0"/>
      </g>
    </mask>
    <filter inkscape:collect="always" id="filter9040" x="-0.11321549117565155" width="1.2264310121536255" y="-0.03045627847313881" height="1.0609126091003418" color-interpolation-filters="sRGB">
      <feGaussianBlur inkscape:collect="always" stdDeviation="2.018125" id="feGaussianBlur9042"/>
    </filter>
    <clipPath clipPathUnits="userSpaceOnUse" id="clipPath9333">
      <rect ry="0" y="-907.4685668945312" x="1053.1572265625" height="321.5895690917969" width="833.5624389648438" id="rect9335" style="fill:none;stroke:#00caec;stroke-opacity:1"/>
    </clipPath>
  </defs>
  <sodipodi:namedview id="base" pagecolor="#ffffff" bordercolor="#666666" borderopacity="1.0" inkscape:pageopacity="0.0" inkscape:pageshadow="2" inkscape:zoom="0.21761679" inkscape:cx="1400.1091" inkscape:cy="721.20868" inkscape:document-units="px" inkscape:current-layer="text8800" showgrid="false" inkscape:window-width="1366" inkscape:window-height="706" inkscape:window-x="-8" inkscape:window-y="-8" inkscape:window-maximized="1"/>
  <metadata id="metadata7">
    <rdf:RDF>
      <cc:Work rdf:about="">
        <dc:format>image/svg+xml</dc:format>
        <dc:type rdf:resource="http://purl.org/dc/dcmitype/StillImage"/>
        <dc:title/>
      </cc:Work>
    </rdf:RDF>
  </metadata>
  
<g class="currentLayer" style=""><title>Layer 1</title><g inkscape:label="Layer 1" inkscape:groupmode="layer" id="layer1" class="selected" stroke-opacity="1" stroke="#031248" fill-opacity="1" fill="#031248">
    <g style="font-size: 181.012px; font-style: normal; font-variant: normal; font-weight: bold; font-stretch: normal; line-height: 125%; letter-spacing: 0px; word-spacing: 0px; fill-opacity: 1; font-family: &quot;Script MT Bold&quot;;" id="text8800" stroke="#031248" fill="#031248">
      <text transform="matrix(1.0000000036592482,0,0,1.0000000326515577,-2.8571429,-293.31083467204525) " sodipodi:linespacing="125%" id="text8888" y="472.79694" x="1449.8739" style="font-size: 184.679px; font-style: normal; font-variant: normal; font-weight: bold; font-stretch: normal; line-height: 125%; letter-spacing: 0px; word-spacing: 0px; fill-opacity: 1; font-family: &quot;Script MT Bold&quot;;" xml:space="preserve" stroke-width="0" stroke="#031248" fill="#031248"/>
      <g id="g9537" inkscape:export-filename="D:\Design Project Learning\Category Design Learning\Icon\Icon Alat Tulis [Pixel Art Style]\SVG\oliii.png" inkscape:export-xdpi="300" inkscape:export-ydpi="300" stroke-width="0" stroke="#031248" fill="#031248">
        <g id="g9362" stroke-width="0" stroke="#031248" fill="#031248">
          <path sodipodi:nodetypes="cccccccccccccczcccccccccccccccccccczzczzczcczccccc" style="fill-opacity: 1; fill-rule: nonzero;" d="m519.4146896310258,172.34602900078556 c-12.652216181208443,2.225719627850561 -19.347648214440348,14.920977896635307 -22.674861193877977,26.15018659159378 c-2.43180970759682,7.662638685170018 -9.792747314324348,14.453166975955162 -18.2861576870759,12.846434547127057 C464.1976826925952,209.35443820292954 453.28142603274887,198.9077183507997 441.50742435640103,191.55639505433209 C431.3469387225912,184.5994449009953 418.59709106299755,177.16231961551279 405.9306760797541,181.52889124625392 c-16.667668473513384,5.90714196155679 -25.704319573684664,29.128900941230015 -14.305337193466892,43.64914495625172 c10.97139385002369,15.694870590158768 30.75844360478264,21.345907337150482 48.89380582358709,23.140439583818786 c12.116634884657676,2.830799369705436 21.95414868397546,17.436763561708247 15.978368252808727,29.32500556336301 c-5.919007294618274,8.16657432737228 -17.31594054826977,6.713922209797943 -26.143464789252548,6.3177165359679455 c-14.64920258516505,-1.2440696888497491 -30.341295526002018,-7.6385600499029405 -44.471522597289784,-0.6500966663008474 c-10.70766481603877,6.629505728175346 -6.124551787342415,25.484592724936487 6.165769748978649,27.116230738006255 c10.30214787746769,1.4452890345337326 21.96371539464853,-2.964523787517213 31.242408571451747,3.336659654716873 c5.358728181329256,3.930311903464246 0.8025157142151255,11.054898151192301 -2.912830029655529,14.373188355733536 c-8.266415235848736,9.545698615302532 -17.282805792061655,18.394997307485326 -26.117122197506554,27.415892326212724 c-5.282346937070808,6.016206819804042 -12.4336603380786,11.176400792877928 -13.981958947401088,19.748542091902813 c-1.5482956664436045,8.572141299024885 11.246029193149255,14.66641386775703 19.251139444349054,11.88767991178236 c9.369707592019823,-3.059019629417216 16.346559481354316,-10.560706381071352 25.123632772493128,-14.841085502765837 c7.858072544974135,-4.523681635835961 17.936054275009305,-9.316677892526386 26.83425969814192,-5.037884982566068 c7.307538480818503,5.107975529639639 6.650318582818155,15.640556816938386 3.0869154414075726,22.81366230930691 c-7.195736746323464,22.4359261435356 -11.426883814908129,47.47268332699046 -3.31623721835534,70.24383575039748 c3.2985549305864326,9.207850230319531 13.168579595789122,14.50203053742846 22.674229063493893,13.59338724421622 c11.598995143505412,-0.5038208699246509 20.833166388550374,-9.11933431837097 25.833426613163688,-19.041250573925648 c6.158671525112692,-10.921956539171413 10.505677381020593,-24.884148311657654 22.900597661482504,-30.322476713688598 c12.667725152922207,-3.6936897244555342 24.5029098698248,10.1989647621928 22.29183373573129,22.356118210290933 c-0.9529394968836462,5.620686836760799 -0.8897676587797331,13.00099454764366 5.256752719424775,15.662952125467163 c8.395433106097606,5.250837586476626 21.319538924433715,0.9976124085134188 23.609325297133726,-9.024432359180958 c7.5914533096381565,-15.50784474947272 1.8471361883823945,-32.851313163877506 -0.24331134029420196,-48.911221397297524 c-0.6905141582439249,-7.977223612344876 1.557489220074305,-18.932272824894227 10.528384634482336,-21.146091744708055 c10.344113330340223,-0.9820180931528422 17.27170319289951,8.651737344987806 21.388022658921564,16.82791722913248 c12.007808106425529,19.145499116543704 19.037171549397915,42.67816854478087 38.240659898872345,56.28698824601745 c19.78674928682499,12.887908539649533 50.27579263572715,-3.7788948976268446 50.05665115969958,-27.412746388654607 c-0.025573617493851033,-13.74810321731522 -11.395186066458617,-24.306428809345864 -23.233916952415303,-29.38988132900255 c-16.936167914167758,-8.770673796261198 -37.37274900155716,-13.422632581040768 -49.458254996253416,-29.341085453744252 c-3.369825865664434,-5.445650284766767 3.938086949347996,-11.969132914339452 9.213544606953544,-8.660489466875399 c7.3859314770814155,2.5632269331675324 13.325025980091839,8.323782918910686 21.161591671900634,9.798494856817705 c16.951747514974713,5.882282286226174 40.5164499396045,9.617940406861587 53.36242526647406,0.7589125569920496 c12.84597826974845,-8.859027849869538 3.0808999026826958,-22.588405528660633 -7.370952223566605,-30.372723428251064 c-10.451852126249301,-7.78431789959043 -24.508845656531943,-18.932255167620745 -27.247229771772254,-34.243992352081555 c-0.6912292778125105,-15.52114361928107 14.682985069015329,-24.122389990756627 29.029437223357544,-28.11281019602117 c14.346455097221101,-3.9904202052645443 7.434177033490413,-31.02995363303729 -5.5451931073908085,-33.645863984507336 c-12.979334826334625,-2.6159103514700504 -23.979130400458793,2.0514102612359584 -32.91146821574088,-6.525351357682511 c-8.202368479852888,-10.217860987693888 2.4343964981350354,-22.1040047166836 14.35379463715547,-26.135907743107364 c11.919395196141549,-4.031903026423761 15.212759182666142,-18.75490816139203 7.658127173612919,-27.40731559990835 C674.7523472574267,174.59757268538658 658.6838989534467,173.03013769583686 646.3393372164318,177.28992402233683 C632.8280564318306,181.29664012529486 621.6871321579902,193.95355915617534 612.0516287481458,200.2141859012442 C602.4161223954226,206.47481352917669 591.8340066782932,196.51005955101118 593.8970824904784,186.82634962618414 C594.2650806661693,180.7862798841374 589.5054449334299,173.3233576163904 582.7096401301333,175.35382723414432 C573.4851126991881,177.6236547311446 570.9799782213408,188.2443146185854 564.754791747713,194.23869469406668 C560.5869189294174,199.46954924985965 552.3362607499723,204.09382731558247 546.333538262631,198.89832173843018 C535.7910189808733,191.74767835794177 532.8335198755154,175.364720889017 519.4146896310258,172.34602900078556 z" id="path9364" inkscape:connector-curvature="0" stroke-width="0" stroke="#031248" fill="#031248"/>
          <path inkscape:connector-curvature="0" id="path9366" d="m519.9751432570326,175.5969269839287 c-12.37956728132895,2.1777568816125643 -18.930715848681853,14.599439829452445 -22.18623146989132,25.586666774325643 c-2.379405863326048,7.4975137493553445 -9.58171935537739,14.141710329064942 -17.89210031887548,12.569600870649591 c-13.948780930873394,-1.9453665624809062 -24.62979886148966,-12.16696794927336 -36.150077880630796,-19.35987342525718 c-9.94153344375202,-6.807031955729871 -22.416629457646625,-14.083891587059043 -34.81009007018253,-9.811417038125176 c-16.308492165850293,5.7798465570185975 -25.15040708457127,28.501191049109092 -13.997066804723088,42.708533463694245 c10.734965903436981,15.356654345311629 30.09561781679794,20.885914762878798 47.84017395999198,22.641774637749904 c11.855528838621233,2.7697993755944657 21.48105000329419,17.061013839203284 15.634044066292695,28.693069402834972 c-5.791456155204726,7.990590168368226 -16.94279233453354,6.569241453792654 -25.580088884514876,6.1815760145685035 c-14.333521144530021,-1.2172630048302184 -29.687458172989867,-7.473956003655888 -43.513188509125584,-0.6360885626744376 c-10.476919568575264,6.486643671338359 -5.992569555194632,24.935416205202966 6.032901710287064,26.531892701018876 c10.08014298028689,1.4141445469962763 21.49041041815756,-2.900639772071393 30.569153514993342,3.2647562942328254 c5.243250791109265,3.845615848344903 0.785221886458783,10.816672103175943 -2.850060483094931,14.063453293007486 c-8.088278951314152,9.33999726503388 -16.91037269789401,17.99859740364706 -25.554314268393313,26.82509761288998 c-5.168516381873782,5.886561232165838 -12.165722987290897,10.9355555826289 -13.68065523583717,19.32297237227779 c-1.514932248546275,8.38741678964889 11.0036831171287,14.350363386883444 18.836287693960887,11.631508188153848 c9.167796671852606,-2.993099141763523 15.994301587657427,-10.333130611841542 24.5822342872542,-14.521268136883469 c7.688735998018119,-4.426198771839149 17.54954333112873,-9.115908807316108 26.255997534862143,-4.929322179461392 c7.150065620361373,4.997900086773624 6.507008326985783,15.303511837898665 3.0203943128468413,22.322042615356015 c-7.040672926520012,21.952443509779457 -11.180641367246393,46.44967387345689 -3.244774113286274,68.730121838255 c3.227472928332724,9.009441333997568 12.884804553716416,14.189526225645173 22.18561434818954,13.300453077205125 c11.349041725572128,-0.49296164673527043 20.384224329180757,-8.922802978795573 25.27673104349058,-18.630919081312715 c6.025956516123026,-10.686593912337512 10.279284651425142,-24.34790868762617 22.407103358702138,-29.6690457655792 c12.394743707728924,-3.6140907356136998 23.97488676910941,9.979184679203822 21.811458787011638,21.874360103577878 c-0.9324040880376055,5.499563826454965 -0.8705948028565524,12.720829532236554 5.143472482578883,15.325424514285691 c8.214516683882188,5.137672120751845 20.860114330482613,0.9761235066898803 23.100557452950245,-8.829961034844738 c7.427861615407353,-15.173660248736542 1.8073308086100326,-32.14338892693403 -0.23806713012457675,-47.85721460017214 c-0.6756349626111392,-7.805321226393305 1.5239256864129276,-18.524295635411782 10.301503386992296,-20.690407545165165 c10.121204969342322,-0.960855850888659 16.899508471921393,8.465297137205468 20.927123682650045,16.46528686082217 c11.749046651995226,18.732925150198977 18.62693129021951,41.75848062700773 37.41659789691486,55.074036558794944 c19.360355565457432,12.610171399345743 49.19237766068385,-3.697462495222142 48.977959505263605,-26.822016418667953 c-0.025014470506068327,-13.451840654253395 -11.14962636669775,-23.782640505995754 -22.733239082281372,-28.756547300990782 c-16.571203846605336,-8.581673283824452 -36.56738899490155,-13.133382898428884 -48.392459037083036,-28.70880497638338 c-3.297210329224759,-5.328300045227541 3.8532231509969965,-11.711204291999815 9.014997397349672,-8.473860914842621 c7.226768815569627,2.507992038847347 13.037880458834357,8.14441150627764 20.70557198881724,9.58734329480197 c16.586447959219623,5.755523662801732 39.64334486106068,9.410679330768986 52.212498285794574,0.7425589788718905 c12.569153424733882,-8.668120351897096 3.0145085550807074,-22.101638642037457 -7.212113278731954,-29.718209500701633 c-10.226621833812661,-7.616570858664174 -23.980696012024584,-18.52427503525939 -26.66006951990164,-33.506053693103254 c-0.6763324249064258,-15.18667365929032 14.366575560144629,-23.60256868818139 28.40387240206291,-27.50699797160482 c14.037296841918277,-3.904429283423432 7.273972592854019,-30.36127562927906 -5.425697510343878,-32.92081513516847 c-12.699640674409066,-2.559539505889404 -23.46239618313885,2.0072023342032006 -32.202246176437306,-6.3847347174562294 c-8.025613288378127,-9.997671844535988 2.3819367391654858,-21.62767622156524 14.04447746639296,-25.5726936909583 c11.662540727227475,-3.945017469393063 14.884934246608026,-18.350751417314587 7.493099354487178,-26.816704816517674 c-7.881059077641884,-11.11654852154307 -23.60324236648243,-12.650206324079708 -35.68178845262024,-8.482215748076943 c-13.220118233668273,3.9203738013746694 -24.1209624482282,16.304543871709118 -33.54882809559886,22.430258453036835 c-9.427865647370654,6.125714287039826 -19.78194356560894,-3.624305468321109 -17.763325824710243,-13.099337026570991 c0.3600671171009964,-5.909910033462463 -4.29700045792683,-13.212010737229392 -10.94635877936544,-11.225296726019272 c-9.025744791030633,2.2209142008733416 -11.476895098646967,12.612705218089932 -17.567933381269018,18.477909977983323 c-4.078059097663305,5.118131699056677 -12.15092030650907,9.64276094190266 -18.024285609666197,4.559214250120758 c-10.315334917742712,-6.996550709143214 -13.209103038008953,-23.02646512068079 -26.3387660034484,-25.980106141977316 z" style="fill-opacity: 1; fill-rule: nonzero;" sodipodi:nodetypes="cccccccccccccczcccccccccccccccccccczzczzczcczccccc" stroke-width="0" stroke="#031248" fill="#031248"/>
          <path sodipodi:nodetypes="cccccccccccccczcccccccccccccccccccczzczzczcczccccc" style="fill-opacity: 1; fill-rule: nonzero;" d="m519.9751321145401,175.59692568957655 c-12.37956728132895,2.1777568816125643 -18.930715848681853,14.599439829452445 -22.18623146989132,25.586666480037753 c-2.379405863326048,7.4975137493553445 -9.58171935537739,14.141710329064942 -17.89210031887548,12.569600870649591 c-13.948780930873394,-1.9453665624809062 -24.62979709576233,-12.16696794927336 -36.15007729205502,-19.35987313096929 c-9.941533384894443,-6.807031955729871 -22.416629457646625,-14.083891587059043 -34.81009007018253,-9.811417038125176 c-16.30849275442607,5.7798465570185975 -25.150407673147047,28.501190754821202 -13.997067393298867,42.70853316940635 c10.734965609149095,15.356654345311629 30.095618405373713,20.885914762878798 47.84017454856776,22.641774637749904 c11.855530015772786,2.7697993755944657 21.481050297582076,17.061013839203284 15.634045243444247,28.693069402834972 c-5.791456155204726,7.990590168368226 -16.942793511685093,6.569241453792654 -25.580090091095222,6.1815760145685035 c-14.333521115101234,-1.2172630048302184 -29.68745902642474,-7.473956003655888 -43.51318906827257,-0.6360885626744376 c-10.476919568575264,6.486643671338359 -5.992569555194632,24.935416205202966 6.032901710287064,26.531892701018876 c10.080142685999004,1.4141445469962763 21.49041100673334,-2.900639772071393 30.569154103569122,3.2647562942328254 c5.243250761680477,3.845615848344903 0.785221886458783,10.816672103175943 -2.850060483094931,14.063453293007486 c-8.088278951314152,9.33999726503388 -16.910373580757675,17.99859740364706 -25.55431485696909,26.82509761288998 c-5.168516381873782,5.886561232165838 -12.165722987290897,10.9355555826289 -13.68065523583717,19.32297237227779 c-1.514932248546275,8.38741678964889 11.0036831171287,14.350363386883444 18.836287399672994,11.631508188153848 c9.167797554716271,-2.993099141763523 15.994302470521092,-10.333130611841542 24.582235170117865,-14.521268136883469 c7.6887360568756975,-4.426198771839149 17.54954333112873,-9.115908807316108 26.255998712013696,-4.929322179461392 c7.150064737497708,4.997900086773624 6.507008326985783,15.303511837898665 3.0203943128468413,22.322042615356015 c-7.040672926520012,21.95245528129511 -11.180642544397946,46.4496768163358 -3.244774113286274,68.73012478113391 c3.227472928332724,9.009447219755394 12.884802787989086,14.189532111403 22.18561258246221,13.300458962962951 c11.349041725572128,-0.49296164673527043 20.384224329180757,-8.9228088645534 25.27673104349058,-18.63092496707054 c6.025956516123026,-10.686593912337512 10.279284651425142,-24.347899858989432 22.407103358702138,-29.66903693694246 c12.394743707728924,-3.6140907356136998 23.97488676910941,9.979184679203822 21.811458787011638,21.874351274941137 c-0.9324040880376055,5.499563826454965 -0.8705948028565524,12.720829532236554 5.143472482578883,15.325424514285691 c8.214516683882188,5.137678006509671 20.860114330482613,0.9761235066898803 23.100557452950245,-8.829961034844738 c7.427861615407353,-15.173660248736542 1.8073308086100326,-32.14338009829729 -0.23806713012457675,-47.85720871441433 c-0.6756349626111392,-7.805330055030045 1.5239256864129276,-18.52430446404852 10.301503386992296,-20.690416373801902 c10.121204969342322,-0.960855850888659 16.899508471921393,8.465297137205468 20.927123682650045,16.46527508930652 c11.749046651995226,18.732948693230284 18.62693129021951,41.75849534140229 37.41659789691486,55.074051273189504 c19.360367336972963,12.61017728510357 49.192398260836036,-3.697462495222142 48.97798010541578,-26.822007590031212 c-0.02489675535074565,-13.451840654253395 -11.14962636669775,-23.78266404902706 -22.733256739554673,-28.756573786901 c-16.5712097323631,-8.581658569429887 -36.56739193778043,-13.13336818403432 -48.392461979961915,-28.708790261988813 c-3.297210329224759,-5.328300045227541 3.8532231509969965,-11.711204291999815 9.014997397349672,-8.473860914842621 c7.226768815569627,2.507992038847347 13.037880458834357,8.14441150627764 20.70556316018059,9.58734329480197 c16.586477388008454,5.755523662801732 39.64337428984952,9.410679330768986 52.21252771458341,0.7425589788718905 c12.569153424733882,-8.668120351897096 3.0145085550807074,-22.101638642037457 -7.212113278731954,-29.718209500701633 c-10.226621833812661,-7.616570858664174 -23.980696012024584,-18.52427503525939 -26.66008423429605,-33.506053693103254 c-0.6763235962697768,-15.18667365929032 14.366593217417927,-23.60256868818139 28.40388711645732,-27.50699797160482 c14.037293899039396,-3.904429283423432 7.273954935580721,-30.36127562927906 -5.425697510343878,-32.92081513516847 c-12.6996524459246,-2.559539505889404 -23.462413840412147,2.0072023342032006 -32.202275605226134,-6.3847347174562294 c-8.025592688225945,-9.997671844535988 2.3819720537120825,-21.62767622156524 14.044506895181792,-25.5726936909583 c11.662534841469709,-3.945017469393063 14.884934246608026,-18.350751123026697 7.493099354487178,-26.816704522229784 c-7.881059077641884,-11.11654852154307 -23.603260023755727,-12.650206324079708 -35.68181788140907,-8.482215748076943 c-13.220109405031623,3.9203738013746694 -24.120953619591553,16.304543871709118 -33.548819266962205,22.430258158748945 c-9.427865647370654,6.125714287039826 -19.78194356560894,-3.624305468321109 -17.763325824710243,-13.099336732283101 c0.3600671171009964,-5.909910033462463 -4.29700045792683,-13.212010737229392 -10.94635877936544,-11.225296726019272 c-9.025744791030633,2.2209142008733416 -11.476895098646967,12.612705218089932 -17.567933381269018,18.477909977983323 c-4.078059097663305,5.1181314047687865 -12.15092030650907,9.642760647614768 -18.024285609666197,4.559213955832866 c-10.315334917742712,-6.9965504148553235 -13.209103038008953,-23.0264648263929 -26.3387660034484,-25.980105847689426 z" id="path9368" inkscape:connector-curvature="0" mask="url(#mask8752)" stroke-width="0" stroke="#031248" fill="#031248"/>
        </g>
        <g id="g9412" stroke-width="0" stroke="#031248" fill="#031248">
          <path style="fill-rule: nonzero;" d="m546.3090320675589,509.1262921600286 c0,8.820289359680658 -11.639587532917993,15.970549656405824 -25.99774941469726,15.970549656405824 c-14.358156873794805,0 -25.997744406712798,-7.150260296725165 -25.997744406712798,-15.970549656405824 c0,-8.820291841581765 13.344355523397587,-28.05636813363867 27.702512397192393,-28.05636813363867 c14.358166889763728,0 24.292981424217665,19.236076292056907 24.292981424217665,28.05636813363867 z" id="path9414" inkscape:connector-curvature="0" sodipodi:nodetypes="sssss" stroke-width="0" stroke="#031248" fill="#031248"/>
          <path sodipodi:nodetypes="sssss" inkscape:connector-curvature="0" id="path9416" d="m546.3090326943606,507.8278138198937 c0,8.412077088131028 -10.882680664823072,15.231414728787012 -24.307151134443494,15.231414728787012 c-13.42446556425282,0 -24.307146229075894,-6.819337640655983 -24.307146229075894,-15.231414728787012 c0,-8.41207962195177 12.476591571295746,-26.757889438609777 25.901057135548566,-26.757889438609777 c13.424470469620426,0 22.71324022797082,18.345809816658004 22.71324022797082,26.757889438609777 z" style="fill-rule: nonzero;" stroke-width="0" stroke="#031248" fill="#031248"/>
          <path id="path9418" d="m518.677317719628,481.86485742866114 c-11.39947585806232,3.6035998584121502 -20.98577578309742,18.59434722553997 -20.98577578309742,25.963744409483198 c0,6.597298929087528 6.701296265052127,12.215126646202096 16.06507890481088,14.33192356851619 c-6.601359210845192,-7.402412868203605 -12.640582915682534,-18.34328106355809 -4.9053676045224055,-29.154774905677687 c3.387063128938236,-4.7340867865722585 6.725411052195959,-8.362188691553701 9.826064482808945,-11.1408930723217 z" style="filter: url(&quot;#filter9040&quot;);" inkscape:connector-curvature="0" stroke-width="0" stroke="#031248" fill="#031248"/>
        </g>
        <g id="g9420" stroke-width="0" stroke="#031248" fill="#031248">
          <path sodipodi:nodetypes="sssss" inkscape:connector-curvature="0" id="path9422" d="m401.86098681574526,467.06057335071046 c0,13.312600963081413 -17.56781188989415,24.104600888570545 -39.23881065255485,24.104600888570545 c-21.670991204031264,0 -39.23880309392541,-10.79199992548913 -39.23880309392541,-24.104600888570545 c0,-13.312604709053652 20.140844936637368,-42.345916126494025 41.81183614066863,-42.345916126494025 c21.671006321290136,0 36.66577760581163,29.033311417440377 36.66577760581163,42.345916126494025 z" style="fill-rule: nonzero;" stroke-width="0" stroke="#031248" fill="#031248"/>
          <path style="fill-rule: nonzero;" d="m401.86098776178693,465.10075964205396 c0,12.696479784085309 -16.425400490928798,22.98901295851407 -36.687164171536374,22.98901295851407 c-20.261756276859373,0 -36.68715676778817,-10.29253317442876 -36.68715676778817,-22.98901295851407 c0,-12.696483608420666 18.83111520332486,-40.386101882190346 39.09287148018423,-40.386101882190346 c20.26176368060758,0 34.28144945914031,27.689618273769682 34.28144945914031,40.386101882190346 z" id="path9424" inkscape:connector-curvature="0" sodipodi:nodetypes="sssss" stroke-width="0" stroke="#031248" fill="#031248"/>
          <path inkscape:connector-curvature="0" style="filter: url(&quot;#filter9040&quot;);" d="m360.1560072804402,425.9144626665453 c-17.205407575780587,5.438969742302709 -31.67416029806054,28.064739680100004 -31.67416029806054,39.18748634380402 c0,9.957406667244125 10.114371481802184,18.436482083880183 24.24727537791632,21.631396853395938 c-9.96353491958103,-11.172577753383528 -19.078629909632987,-27.685801587085095 -7.40374820699735,-44.003758681880576 c5.112147465715738,-7.145231380086449 10.150768307987784,-12.621182445274878 14.830633127141567,-16.815124515319383 z" id="path9426" stroke-width="0" stroke="#031248" fill="#031248"/>
        </g>
        <g id="g9428" stroke-width="0" stroke="#031248" fill="#031248">
          <path style="fill-rule: nonzero;" d="m613.7178191187454,447.3112399272556 c0,4.940565631858084 -6.519757150720871,8.945687101265154 -14.562286865385955,8.945687101265154 c-8.042526909510485,0 -14.562284060231356,-4.00512146940707 -14.562284060231356,-8.945687101265154 c0,-4.940567022061377 7.474659827883262,-15.715394643337659 15.517186737393747,-15.715394643337659 c8.042532519819684,0 13.607384188223564,10.774827621276282 13.607384188223564,15.715394643337659 z" id="path9430" inkscape:connector-curvature="0" sodipodi:nodetypes="sssss" stroke-width="0" stroke="#031248" fill="#031248"/>
          <path sodipodi:nodetypes="sssss" inkscape:connector-curvature="0" id="path9432" d="m613.7178194698399,446.58391487029 c0,4.711911056358553 -6.0957860304612135,8.531670681646057 -13.615321159298118,8.531670681646057 c-7.519532381161747,0 -13.61531841162296,-3.819759625287504 -13.61531841162296,-8.531670681646057 c0,-4.711912475643926 6.9885936149823795,-14.988069387583016 14.508125996144127,-14.988069387583016 c7.519535128836906,0 12.72251357477695,10.27615691193909 12.72251357477695,14.988069387583016 z" style="fill-rule: nonzero;" stroke-width="0" stroke="#031248" fill="#031248"/>
          <path id="path9434" d="m598.240288948788,432.04111646343614 c-6.385261851408544,2.018507657223201 -11.754897786397212,10.415371775588161 -11.754897786397212,14.543239804604827 c0,3.6953876480673737 3.7536402488155507,6.842137761703202 8.998636143275586,8.027832890007543 c-3.697661862816482,-4.146361317424497 -7.080451143197906,-10.274740465137016 -2.747675158252088,-16.330652320998773 c1.8972174909450599,-2.6517345998747586 3.767147819893518,-4.6839667466531205 5.503936801373713,-6.240420373613599 z" style="filter: url(&quot;#filter9040&quot;);" inkscape:connector-curvature="0" stroke-width="0" stroke="#031248" fill="#031248"/>
        </g>
        <g id="g9436" stroke-width="0" stroke="#031248" fill="#031248">
          <path sodipodi:nodetypes="sssss" inkscape:connector-curvature="0" id="path9438" d="m738.1242128799777,339.968941084152 c0,3.55571601849811 -4.692257359818286,6.4381945899740485 -10.480451363489415,6.4381945899740485 c-5.788191984806466,0 -10.480449344624754,-2.882478571475938 -10.480449344624754,-6.4381945899740485 c0,-3.5557170190248684 5.379499079293989,-11.310340684477364 11.167691064100454,-11.310340684477364 c5.788196022535789,0 9.793209644013713,7.754623665452495 9.793209644013713,11.310340684477364 z" style="fill-rule: nonzero;" stroke-width="0" stroke="#031248" fill="#031248"/>
          <path style="fill-rule: nonzero;" d="m739.3125065895767,339.4454871490282 c0,3.391153740129833 -4.387126115908561,6.140227732562376 -9.79892186765614,6.140227732562376 c-5.411793774250768,0 -9.798919890159329,-2.7490739924325434 -9.798919890159329,-6.140227732562376 c0,-3.391154761586912 5.029678110181513,-10.786886032672163 10.44147188443228,-10.786886032672163 c5.41179575174758,0 9.15636987338319,7.395731271085251 9.15636987338319,10.786886032672163 z" id="path9440" inkscape:connector-curvature="0" sodipodi:nodetypes="sssss" stroke-width="0" stroke="#031248" fill="#031248"/>
          <path inkscape:connector-curvature="0" style="filter: url(&quot;#filter9040&quot;);" d="m751.9331756983148,303.69208932165 c-4.595461337593831,1.452716256610148 -8.45997855089364,7.495923952971325 -8.45997855089364,10.466742998138173 c0,2.65956370867024 2.7014880579819582,4.924273990650168 6.476302060874021,5.7776165985453165 c-2.661200515421291,-2.9841286308957393 -5.095787806119553,-7.394711856921211 -1.9774968124806171,-11.75314050599108 c1.365423976578429,-1.9084485251609329 2.7112094323121134,-3.3710422717172355 3.961173302500236,-4.491219090692409 z" id="path9442" stroke-width="0" stroke="#031248" fill="#031248"/>
        </g>
        <g id="g9444" stroke-width="0" stroke="#031248" fill="#031248">
          <path style="fill-rule: nonzero;" d="m663.071066433234,592.2487765548428 c0,13.312600963081413 -17.56781188989415,24.104600888570545 -39.23881065255485,24.104600888570545 c-21.670991204031264,0 -39.23880309392541,-10.79199992548913 -39.23880309392541,-24.104600888570545 c0,-13.312604709053652 20.140844936637368,-42.345916126494025 41.81183614066863,-42.345916126494025 c21.671006321290136,0 36.66577760581163,29.033311417440377 36.66577760581163,42.345916126494025 z" id="path9446" inkscape:connector-curvature="0" sodipodi:nodetypes="sssss" stroke-width="0" stroke="#031248" fill="#031248"/>
          <path sodipodi:nodetypes="sssss" inkscape:connector-curvature="0" id="path9448" d="m663.0710673792756,590.2889628461863 c0,12.696479784085309 -16.425400490928798,22.98901295851407 -36.687164171536374,22.98901295851407 c-20.261756276859373,0 -36.68715676778817,-10.29253317442876 -36.68715676778817,-22.98901295851407 c0,-12.696483608420666 18.83111520332486,-40.386101882190346 39.09287148018423,-40.386101882190346 c20.26176368060758,0 34.28144945914031,27.689618273769682 34.28144945914031,40.386101882190346 z" style="fill-rule: nonzero;" stroke-width="0" stroke="#031248" fill="#031248"/>
          <path id="path9450" d="m621.3660868979289,551.1026658706777 c-17.205407575780587,5.438969742302709 -31.67416029806054,28.064739680100004 -31.67416029806054,39.18748634380402 c0,9.957406667244125 10.114371481802184,18.436482083880183 24.24727537791632,21.631396853395938 c-9.96353491958103,-11.172577753383528 -19.078629909632987,-27.685801587085095 -7.40374820699735,-44.003758681880576 c5.112147465715738,-7.145231380086449 10.150768307987784,-12.621182445274878 14.830633127141567,-16.815124515319383 z" style="filter: url(&quot;#filter9040&quot;);" inkscape:connector-curvature="0" stroke-width="0" stroke="#031248" fill="#031248"/>
        </g>
        <g id="g9452" stroke-width="0" stroke="#031248" fill="#031248">
          <path style="fill-rule: nonzero;" d="m344.8763036912801,202.80205745868227 c0,16.35214447248589 -21.578908836685184,29.608182298456143 -48.19784747459147,29.608182298456143 c-26.61892935348449,0 -48.197838190169676,-13.256037825970251 -48.197838190169676,-29.608182298456143 c0,-16.35214907374145 24.73941885907391,-52.01436896069351 51.358348212558404,-52.01436896069351 c26.618947922328076,0 45.03733745220274,35.66221988695206 45.03733745220274,52.01436896069351 z" id="path9454" inkscape:connector-curvature="0" sodipodi:nodetypes="sssss" stroke-width="0" stroke="#031248" fill="#031248"/>
          <path sodipodi:nodetypes="sssss" inkscape:connector-curvature="0" id="path9456" d="m344.8763048533227,200.39477754456277 c0,15.595350021916657 -20.175661147856943,28.23788245587583 -45.06360701582265,28.23788245587583 c-24.887936773787754,0 -45.0635979216447,-12.642532433959174 -45.0635979216447,-28.23788245587583 c0,-15.595354719427267 23.13065057916624,-49.60708838862777 48.01858735295399,-49.60708838862777 c24.887945867965712,0 42.108617584513354,34.0117336692005 42.108617584513354,49.60708838862777 z" style="fill-rule: nonzero;" stroke-width="0" stroke="#031248" fill="#031248"/>
          <path id="path9458" d="m293.64920967020487,152.26143446139918 c-21.133760077961483,6.68079958636625 -38.906030064198276,34.47250308969515 -38.906030064198276,48.13480400896265 c0,12.23088957940055 12.423692917142962,22.645914155773287 29.783432802980126,26.570294375182186 c-12.238417229663538,-13.723509482486696 -23.434678042383467,-34.007045553613956 -9.094177955108437,-54.05073143061923 c6.279357088621229,-8.776636221616975 12.468399895970276,-15.502860735560335 18.216775216326585,-20.6543669535256 z" style="filter: url(&quot;#filter9040&quot;);" inkscape:connector-curvature="0" stroke-width="0" stroke="#031248" fill="#031248"/>
        </g>
      </g>
    </g>
  </g></g></svg>